# xmcd CD database file
#
# Track frame offsets:
#	150
#	16260
#	30002
#	39780
#	52824
#	67951
#	83252
#	103702
#	113133
#	125067
#	136948
#	155393
#	172141
#	188849
#	204389
#	222233
#	235901
#
# Disc length: 3305 seconds
#
# Revision: 0
# Processed by: cddbd v1.5PL3 Copyright (c) Steve Scherf et al.
# Submitted via: CDex 1.51
#
DISCID=d00ce711
DTITLE=Dick Barret and Paul Anastasio - Twin Fiddle Western Swing Vol.2
DYEAR=2002
DGENRE=Jazz
TTITLE0=San Antonio Rose
TTITLE1=Lily Dale
TTITLE2=Alabama Jubilee
TTITLE3=Tears On My Pillow
TTITLE4=You Can't Break My Heart
TTITLE5=Still Water RUn The Deepest
TTITLE6=Pendulum Waltz
TTITLE7=Old Fashioned Love
TTITLE8=Its A Long Way To Tipperary
TTITLE9=The Waltz You Saved For Me
TTITLE10=Hang Your Head In Shame
TTITLE11=Girl Of My Dreams
TTITLE12=Back Home Again In Indiana
TTITLE13=Whose Heart Are You Breaking Now
TTITLE14=Frankie And Johnnie
TTITLE15=I Cant Go On This Way
TTITLE16=Shame On You
EXTD=YEAR: 2002
EXTT0=
EXTT1=
EXTT2=
EXTT3=
EXTT4=
EXTT5=
EXTT6=
EXTT7=
EXTT8=
EXTT9=
EXTT10=
EXTT11=
EXTT12=
EXTT13=
EXTT14=
EXTT15=
EXTT16=
PLAYORDER=
